<?xml version="1.0" encoding="UTF-8" standalone="no"?>
<svg width="23px" height="23px" viewBox="0 0 23 23" version="1.1" xmlns="http://www.w3.org/2000/svg" xmlns:xlink="http://www.w3.org/1999/xlink">
    <!-- Generator: Sketch 3.6.1 (26313) - http://www.bohemiancoding.com/sketch -->
    <title>Сalendar settings@3x</title>
    <desc>Created with Sketch.</desc>
    <defs></defs>
    <g id="Page-1" stroke="none" stroke-width="1" fill="none" fill-rule="evenodd">
        <g id="Экран-3.0-" transform="translate(-303.000000, -31.000000)">
            <g id="Сalendar-settings" transform="translate(303.000000, 31.000000)">
                <g id="calendar" fill="#00D670">
                    <g id="Capa_1">
                        <g id="Group">
                            <path d="M7.12906515,10.9046172 C7.12906515,10.657016 6.92449851,10.4564245 6.67208966,10.4564245 L5.07741841,10.4564245 C4.82529827,10.4564245 4.62069038,10.657016 4.62069038,10.9046172 L4.62069038,12.4699914 C4.62069038,12.7179166 4.82529827,12.918589 5.07741841,12.918589 L6.67208966,12.918589 C6.92449851,12.918589 7.12906515,12.7179166 7.12906515,12.4699914 L7.12906515,10.9046172 L7.12906515,10.9046172 L7.12906515,10.9046172 Z" id="Shape"></path>
                            <path d="M11.1143616,10.9046172 C11.1143616,10.657016 10.9097537,10.4564245 10.6578398,10.4564245 L9.06296234,10.4564245 C8.8108422,10.4564245 8.60623431,10.657016 8.60623431,10.9046172 L8.60623431,12.4699914 C8.60623431,12.7179166 8.8108422,12.918589 9.06296234,12.918589 L10.6578398,12.918589 C10.9097537,12.918589 11.1143616,12.7179166 11.1143616,12.4699914 L11.1143616,10.9046172 L11.1143616,10.9046172 Z" id="Shape"></path>
                            <path d="M7.12906515,14.8176074 C7.12906515,14.5696012 6.92449851,14.3691718 6.67208966,14.3691718 L5.07741841,14.3691718 C4.82529827,14.3691718 4.62069038,14.5696012 4.62069038,14.8176074 L4.62069038,16.3826982 C4.62069038,16.6304613 4.82529827,16.8310933 5.07741841,16.8310933 L6.67208966,16.8310933 C6.92449851,16.8310933 7.12906515,16.6304209 7.12906515,16.3826982 L7.12906515,14.8176074 L7.12906515,14.8176074 L7.12906515,14.8176074 Z" id="Shape"></path>
                            <path d="M17.9513007,4.5918184 C17.9513007,5.67251779 17.0583013,6.54339387 15.9576832,6.54339387 L14.700052,6.54339387 C13.5993515,6.54339387 12.6945152,5.67251779 12.6945152,4.5918184 L12.6945152,2.19225276 L7.02603945,2.19225276 L7.02603945,4.5918184 C7.02603945,5.67251779 6.12124447,6.54339387 5.02070891,6.54339387 L3.76283025,6.54339387 C2.66225344,6.54339387 1.76929528,5.67251779 1.76929528,4.5918184 L1.76929528,2.20083681 C0.807378362,2.22930184 0.0169509863,3.01073374 0.0169509863,3.97121595 L0.0169509863,17.9835018 C0.0169509863,18.9620429 0.824824268,19.7657043 1.82155051,19.7657043 L17.8990042,19.7657043 C18.8942457,19.7657043 19.7036037,18.9603828 19.7036037,17.9835018 L19.7036037,3.97121595 C19.7036037,3.01073374 18.9132176,2.22930184 17.9513007,2.20083681 L17.9513007,4.5918184 Z M17.7896783,17.0559902 C17.7896783,17.5092055 17.4306244,17.8768896 16.987616,17.8768896 L3.12108915,17.8768896 C2.67808078,17.8768896 2.3190269,17.5092055 2.3190269,17.0559902 L2.3190269,9.29904 C2.3190269,8.84565116 2.67803838,8.47796705 3.12108915,8.47796705 L16.9875736,8.47796705 C17.430582,8.47796705 17.7896359,8.84565116 17.7896359,9.29904 L17.7896783,17.0559902 L17.7896783,17.0559902 L17.7896783,17.0559902 Z" id="Shape"></path>
                            <path d="M3.75841721,5.26157669 L5.00239689,5.26157669 C5.37997908,5.26157669 5.68612791,4.9614589 5.68612791,4.59076564 L5.68612791,0.671053988 C5.68612791,0.300320245 5.37997908,0 5.00239689,0 L3.75841721,0 C3.38079378,0 3.07468619,0.300320245 3.07468619,0.671053988 L3.07468619,4.59076564 C3.07468619,4.9614589 3.38079378,5.26157669 3.75841721,5.26157669 L3.75841721,5.26157669 Z" id="Shape"></path>
                            <path d="M14.6840496,5.26157669 L15.9280293,5.26157669 C16.305364,5.26157669 16.6115129,4.9614589 16.6115129,4.59076564 L16.6115129,0.671053988 C16.6115541,0.300320245 16.3054053,0 15.9280293,0 L14.6840496,0 C14.3065087,0 14.0003598,0.300320245 14.0003598,0.671053988 L14.0003598,4.59076564 C14.0003598,4.9614589 14.3065087,5.26157669 14.6840496,5.26157669 L14.6840496,5.26157669 Z" id="Shape"></path>
                        </g>
                    </g>
                </g>
                <path d="M19.9918629,12.8276717 C19.7018937,12.4428847 19.3589772,12.1005761 18.9741257,11.8116986 C19.1049239,11.1062043 19.1567914,10.6650039 19.1567914,10.6650039 C19.1624371,10.6204896 19.1415117,10.5645122 19.0953201,10.5311715 C19.0953201,10.5311715 18.9295903,10.3854524 18.3847445,10.1531735 C17.8398986,9.92089462 17.6204053,9.90238532 17.6204053,9.90238532 C17.5718435,9.89420134 17.509635,9.91598216 17.4818494,9.95094202 C17.4818494,9.95094202 17.2047832,10.2913321 16.7938984,10.8703778 C16.5145427,10.8224895 16.2275039,10.797547 15.9347895,10.797547 C15.6419287,10.797547 15.3548503,10.8224177 15.0755332,10.8701701 C14.6647295,10.2912507 14.3877296,9.95094202 14.3877296,9.95094202 C14.3597691,9.91594092 14.3051406,9.89217371 14.2491737,9.90238532 C14.2491737,9.90238532 14.0296804,9.92089462 13.4848346,10.1531735 C12.9399887,10.3854524 12.774259,10.5311715 12.774259,10.5311715 C12.7346636,10.5605707 12.7070499,10.6206446 12.7127876,10.6650039 C12.7127876,10.6650039 12.7645813,11.1055767 12.8951742,11.8101931 C12.4385119,12.1527447 12.0410719,12.5705435 11.7210706,13.0452799 C11.0085215,12.9374222 10.5634313,12.9004045 10.5634313,12.9004045 C10.5189397,12.8962912 10.4639688,12.9192484 10.4324048,12.9667763 C10.4324048,12.9667763 10.2931887,13.1382107 10.0810711,13.6931985 C9.86895353,14.2481863 9.85819579,14.4691456 9.85819579,14.4691456 C9.85174698,14.5181745 9.87559134,14.5798552 9.91134837,14.6065245 C9.91134837,14.6065245 10.2739823,14.8836392 10.8864325,15.2889422 C10.8622719,15.4908165 10.8498396,15.6963101 10.8498396,15.9047154 L10.8498396,15.9952849 C10.8498396,16.2960293 10.8757865,16.5907023 10.9255445,16.8771795 C10.336423,17.3132041 9.98961098,17.6082477 9.98961098,17.6082477 C9.95525468,17.6369364 9.93254736,17.6922089 9.94368997,17.7482323 C9.94368997,17.7482323 9.96594703,17.9683233 10.206694,18.5114009 C10.447441,19.0544785 10.5953996,19.2183602 10.5953996,19.2183602 C10.6253581,19.2576087 10.6856447,19.2842898 10.7297052,19.2777539 C10.7297052,19.2777539 11.1720506,19.2174194 11.8777162,19.0723287 C12.1676854,19.4571157 12.5106018,19.7994243 12.8954533,20.0883017 C12.7646552,20.7937958 12.7127877,21.234996 12.7127877,21.234996 C12.707142,21.2795103 12.7280675,21.3354878 12.7742591,21.3688285 C12.7742591,21.3688285 12.9399887,21.5145479 13.4848346,21.7468268 C14.0296804,21.9791057 14.2491738,21.9976147 14.2491738,21.9976147 C14.2977357,22.0057986 14.3599442,21.9840178 14.3877298,21.9490579 C14.3877298,21.9490579 14.6647959,21.608668 15.0756806,21.0296225 C15.3550363,21.0775108 15.6420751,21.1024533 15.9347895,21.1024533 C16.2276504,21.1024533 16.5147287,21.0775827 16.7940458,21.0298302 C17.2048494,21.6087494 17.4818492,21.9490579 17.4818492,21.9490579 C17.5098098,21.984059 17.5644383,22.0078263 17.6204051,21.9976147 C17.6204051,21.9976147 17.8398986,21.9791057 18.3847445,21.7468268 C18.9295903,21.5145479 19.0953199,21.3688285 19.0953199,21.3688285 C19.1349153,21.3394292 19.162529,21.2793553 19.1567913,21.234996 C19.1567913,21.234996 19.1049976,20.7944234 18.9744048,20.0898072 C19.4310671,19.7472556 19.8285071,19.3294568 20.1485085,18.8547204 C20.8610574,18.962578 21.3061473,18.9995956 21.3061473,18.9995956 C21.350639,19.0037089 21.4056099,18.9807517 21.4371739,18.9332239 C21.4371739,18.9332239 21.5763902,18.7617896 21.7885079,18.2068018 C22.0006255,17.651814 22.0113829,17.4308546 22.0113829,17.4308546 C22.0178317,17.3818257 21.9939873,17.3201449 21.9582303,17.2934756 C21.9582303,17.2934756 21.5955965,17.016361 20.9831465,16.6110581 C21.0073071,16.4091838 21.0197394,16.2036902 21.0197394,15.9952849 L21.0197394,15.9047154 C21.0197394,15.603971 20.9937925,15.309298 20.9440345,15.0228208 C21.5331558,14.5867962 21.8799676,14.2917527 21.8799676,14.2917527 C21.9143239,14.2630641 21.9370313,14.2077916 21.9258887,14.1517681 C21.9258887,14.1517681 21.903632,13.931677 21.662885,13.3885994 C21.422138,12.8455218 21.2741792,12.6816402 21.2741792,12.6816402 C21.2442205,12.6423918 21.1839339,12.6157107 21.1398735,12.6222466 C21.1398735,12.6222466 20.6975282,12.682581 19.9918629,12.8276717 L19.9918629,12.8276717 Z M15.9347895,13.2510961 C14.4637541,13.2510961 13.2712443,14.4490447 13.2712443,15.918373 L13.2712443,15.9816272 C13.2712443,17.4547236 14.4667474,18.6489042 15.9347895,18.6489042 C17.4058249,18.6489042 18.5983348,17.4509556 18.5983348,15.9816272 L18.5983348,15.918373 C18.5983348,14.4452766 17.4028316,13.2510961 15.9347895,13.2510961 L15.9347895,13.2510961 Z" id="settings" stroke="#FFFFFF" fill="#00D56F"></path>
            </g>
        </g>
    </g>
</svg>