<?xml version="1.0" encoding="UTF-8" standalone="no"?>
<svg width="23px" height="22px" viewBox="0 0 23 22" version="1.1" xmlns="http://www.w3.org/2000/svg" xmlns:xlink="http://www.w3.org/1999/xlink">
    <!-- Generator: Sketch 3.6.1 (26313) - http://www.bohemiancoding.com/sketch -->
    <title>Group 4</title>
    <desc>Created with Sketch.</desc>
    <defs></defs>
    <g id="Page-1" stroke="none" stroke-width="1" fill="none" fill-rule="evenodd">
        <g id="assets-icon" transform="translate(-1197.000000, -365.000000)" fill="#B3B3B3">
            <g id="Group-4" transform="translate(1197.000000, 365.000000)">
                <g id="Triathlon-Copy">
                    <g id="Capa_1">
                        <g id="Group">
                            <path d="M10.3995794,4.52891566 L5.62302839,9.61325301 C5.27476341,10.1192771 5.40536278,10.8084337 5.9108307,11.152988 L10.7212408,14.4373494 L10.7212408,17.6301205 C10.7212408,18.2373253 11.2049422,18.7458072 11.8144059,18.7578554 C12.4383807,18.7674458 12.9462671,18.2686747 12.9462671,17.6494217 L12.9462671,13.8566506 C12.9462671,13.4903614 12.7648791,13.1482169 12.4625657,12.9433976 L9.376551,10.8349639 L11.9740273,8.09040964 L13.3042061,11.1096867 C13.4807571,11.5120723 13.882205,11.7723373 14.3223975,11.7723373 L18.3733964,11.7723373 C18.9828601,11.7723373 19.4931651,11.2904096 19.5052576,10.6831566 C19.5149317,10.0614699 19.0143007,9.55544578 18.3927445,9.55544578 L15.0527865,9.55544578 C14.6126183,8.55785542 14.1434038,7.56990361 13.7347003,6.55785542 C13.5266845,6.04701205 13.4106204,5.8253253 13.0284963,5.47351807 C12.9511041,5.40122892 12.4117771,4.90966265 11.9304942,4.47110843 C11.4879075,4.07108434 10.8058885,4.09759036 10.3995794,4.52891566 L10.3995794,4.52891566 Z" id="Shape"></path>
                            <ellipse id="Oval" cx="14.9560463" cy="2.54337349" rx="2.5491062" ry="2.53975904"></ellipse>
                            <ellipse id="Oval" cx="4.69190326" cy="17.3072289" rx="4.69190326" ry="4.6746988"></ellipse>
                            <ellipse id="Oval" cx="18.2935857" cy="17.3072289" rx="4.69190326" ry="4.6746988"></ellipse>
                        </g>
                    </g>
                </g>
                <path d="M3.04970609,2.57188805 C3.75991337,2.57188805 4.33565012,1.9961513 4.33565012,1.28594403 C4.33565012,0.575736751 3.75991337,0 3.04970609,0 C2.33949882,0 1.76376207,0.575736751 1.76376207,1.28594403 C1.76376207,1.9961513 2.33949882,2.57188805 3.04970609,2.57188805 Z M4.05751801,3.67361418 C3.48294825,4.09106354 3.35557701,4.89525393 3.77302637,5.46982368 C4.19047573,6.04439344 4.99466612,6.17176468 5.56923587,5.75431532 C6.14380563,5.33686596 6.27117687,4.53267557 5.85372751,3.95810582 C5.43627815,3.38353606 4.63208776,3.25616482 4.05751801,3.67361418 Z M2.04189418,3.67361418 C1.46732443,3.25616482 0.66313404,3.38353606 0.245684678,3.95810582 C-0.171764684,4.53267557 -0.0443934392,5.33686596 0.530176315,5.75431532 C1.10474607,6.17176468 1.90893646,6.04439344 2.32638582,5.46982368 C2.74383518,4.89525393 2.61646394,4.09106354 2.04189418,3.67361418 Z" id="Oval-197-Copy"></path>
            </g>
        </g>
    </g>
</svg>